<?xml version="1.0" encoding="UTF-8" standalone="no"?>
<!DOCTYPE svg PUBLIC "-//W3C//DTD SVG 1.1//EN"
 "http://www.w3.org/Graphics/SVG/1.1/DTD/svg11.dtd">
<!-- Generated by graphviz version 2.47.0 (20210316.0004)
 -->
<!-- Title: dependencies Pages: 1 -->
<svg width="504pt" height="287pt"
 viewBox="0.00 0.00 504.00 287.00" xmlns="http://www.w3.org/2000/svg" xmlns:xlink="http://www.w3.org/1999/xlink">
<g id="graph0" class="graph" transform="scale(1 1) rotate(0) translate(4 283)">
<title>dependencies</title>
<polygon fill="white" stroke="transparent" points="-4,4 -4,-283 500,-283 500,4 -4,4"/>
<text text-anchor="start" x="227.01" y="-42.4" font-family="Times-12" font-weight="bold" font-size="14.00">Legend</text>
<polygon fill="#ffffb3" stroke="transparent" points="14,-10 14,-30 34,-30 34,-10 14,-10"/>
<text text-anchor="start" x="37.63" y="-15.4" font-family="Times-12" font-size="14.00"> &#160;Declarations</text>
<polygon fill="#8dd3c7" stroke="transparent" points="127,-10 127,-30 147,-30 147,-10 127,-10"/>
<text text-anchor="start" x="150.73" y="-15.4" font-family="Times-12" font-size="14.00"> &#160;Module</text>
<polygon fill="#80b1d3" stroke="transparent" points="213,-10 213,-30 233,-30 233,-10 213,-10"/>
<text text-anchor="start" x="236.78" y="-15.4" font-family="Times-12" font-size="14.00"> &#160;Bootstrap</text>
<polygon fill="#fdb462" stroke="transparent" points="310,-10 310,-30 330,-30 330,-10 310,-10"/>
<text text-anchor="start" x="333.67" y="-15.4" font-family="Times-12" font-size="14.00"> &#160;Providers</text>
<polygon fill="#fb8072" stroke="transparent" points="406,-10 406,-30 426,-30 426,-10 406,-10"/>
<text text-anchor="start" x="429.73" y="-15.4" font-family="Times-12" font-size="14.00"> &#160;Exports</text>
<g id="clust1" class="cluster">
<title>cluster_AppModule</title>
<polygon fill="none" stroke="black" stroke-dasharray="1,5" points="92,-146 92,-271 382,-271 382,-146 92,-146"/>
</g>
<g id="clust3" class="cluster">
<title>cluster_AppModule_imports</title>
<polygon fill="none" stroke="black" points="238,-154 238,-206 374,-206 374,-154 238,-154"/>
</g>
<g id="clust6" class="cluster">
<title>cluster_AppModule_providers</title>
<polygon fill="none" stroke="black" points="100,-154 100,-206 230,-206 230,-154 100,-154"/>
</g>
<g id="clust7" class="cluster">
<title>cluster_EquipmentModule</title>
<polygon fill="none" stroke="black" stroke-dasharray="1,5" points="208,-70 208,-138 404,-138 404,-70 208,-70"/>
</g>
<g id="clust12" class="cluster">
<title>cluster_EquipmentModule_providers</title>
<polygon fill="none" stroke="black" points="216,-78 216,-130 396,-130 396,-78 216,-78"/>
</g>
<!-- EquipmentModule -->
<g id="node1" class="node">
<title>EquipmentModule</title>
<polygon fill="#8dd3c7" stroke="black" points="366.49,-198 363.49,-202 342.49,-202 339.49,-198 245.51,-198 245.51,-162 366.49,-162 366.49,-198"/>
<text text-anchor="middle" x="306" y="-175.8" font-family="Times,serif" font-size="14.00">EquipmentModule</text>
</g>
<!-- AppModule -->
<g id="node2" class="node">
<title>AppModule</title>
<polygon fill="#8dd3c7" stroke="black" points="276.66,-263 273.66,-267 252.66,-267 249.66,-263 193.34,-263 193.34,-227 276.66,-227 276.66,-263"/>
<text text-anchor="middle" x="235" y="-240.8" font-family="Times,serif" font-size="14.00">AppModule</text>
</g>
<!-- EquipmentModule&#45;&gt;AppModule -->
<g id="edge1" class="edge">
<title>EquipmentModule&#45;&gt;AppModule</title>
<path fill="none" stroke="black" d="M261.17,-198.11C261.17,-198.11 261.17,-216.99 261.17,-216.99"/>
<polygon fill="black" stroke="black" points="257.67,-216.99 261.17,-226.99 264.67,-216.99 257.67,-216.99"/>
</g>
<!-- AppService -->
<g id="node3" class="node">
<title>AppService</title>
<ellipse fill="#fdb462" stroke="black" cx="165" cy="-180" rx="56.74" ry="18"/>
<text text-anchor="middle" x="165" y="-175.8" font-family="Times,serif" font-size="14.00">AppService</text>
</g>
<!-- AppService&#45;&gt;AppModule -->
<g id="edge2" class="edge">
<title>AppService&#45;&gt;AppModule</title>
<path fill="none" stroke="black" d="M207.4,-192.23C207.4,-192.23 207.4,-216.68 207.4,-216.68"/>
<polygon fill="black" stroke="black" points="203.9,-216.68 207.4,-226.68 210.9,-216.68 203.9,-216.68"/>
</g>
<!-- EquipmentService -->
<g id="node4" class="node">
<title>EquipmentService</title>
<ellipse fill="#fdb462" stroke="black" cx="306" cy="-104" rx="82.24" ry="18"/>
<text text-anchor="middle" x="306" y="-99.8" font-family="Times,serif" font-size="14.00">EquipmentService</text>
</g>
<!-- EquipmentService&#45;&gt;EquipmentModule -->
<g id="edge3" class="edge">
<title>EquipmentService&#45;&gt;EquipmentModule</title>
<path fill="none" stroke="black" d="M306,-122.01C306,-122.01 306,-151.85 306,-151.85"/>
<polygon fill="black" stroke="black" points="302.5,-151.85 306,-161.85 309.5,-151.85 302.5,-151.85"/>
</g>
</g>
</svg>
